<svg width="148" height="73" viewBox="0 0 148 73" fill="none" xmlns="http://www.w3.org/2000/svg">
<path d="M31.2586 54.0082C25.5172 54.0082 21.0517 58.1626 21.0517 63.504C21.0517 68.8455 25.5172 73 31.2586 73C37 73 41.4655 68.8455 41.4655 63.504C41.4655 58.1626 37 54.0082 31.2586 54.0082ZM91.8621 0H86.7587V11.5731H105.897L91.8621 0ZM0.637873 65.2845H13.3965C13.3965 65.2845 14.0344 47.4797 32.5345 47.4797C46.25 47.4797 48.4827 65.2845 48.4827 65.2845H80.3794V0H0L0.637873 65.2845ZM121.207 54.0082C115.466 54.0082 111 58.1626 111 63.504C111 68.8455 115.466 73 121.207 73C126.948 73 131.414 68.8455 131.414 63.504C131.414 58.1626 126.629 54.0082 121.207 54.0082ZM109.086 14.8374H86.7587V65.2845H105.897C105.897 65.2845 103.345 50.4471 121.845 50.4471C135.879 50.4471 135.56 65.2845 135.56 65.2845H147.362L148 43.0284L109.086 14.8374ZM105.897 53.4146H93.138V47.4797H105.897V53.4146ZM104.621 42.7317L91.8621 35.6097V18.9918H104.621L137.793 42.7317H104.621Z" fill="white" fill-opacity="0.4"/>
</svg>
